<svg width="41" height="32" viewBox="0 0 41 32" version="1.1" xmlns="http://www.w3.org/2000/svg" xmlns:xlink="http://www.w3.org/1999/xlink">
<title>&#60;Group&#62;</title>
<desc>Created using Figma</desc>
<g id="Canvas" transform="translate(1394 446)">
<g id="&#60;Group&#62;">
<g id="&#60;Path&#62;">
<use xlink:href="#path0_fill" transform="translate(-1380.86 -427.798)" fill="#FFFFFF"/>
</g>
<g id="&#60;Path&#62;">
<use xlink:href="#path1_fill" transform="translate(-1371.98 -421.347)" fill="#FFFFFF"/>
</g>
<g id="&#60;Path&#62;">
<use xlink:href="#path2_fill" transform="translate(-1364.02 -435.862)" fill="#FFFFFF"/>
</g>
<g id="&#60;Path&#62;">
<use xlink:href="#path3_fill" transform="translate(-1368.73 -443.016)" fill="#FFFFFF"/>
</g>
<g id="&#60;Path&#62;">
<use xlink:href="#path4_fill" transform="translate(-1383.31 -434.957)" fill="#FFFFFF"/>
</g>
<g id="&#60;Path&#62;">
<use xlink:href="#path5_fill" transform="translate(-1381.4 -442.996)" fill="#FFFFFF"/>
</g>
<g id="&#60;Compound Path&#62;">
<use xlink:href="#path6_fill" transform="translate(-1394 -446)" fill="#FFFFFF"/>
</g>
</g>
</g>
<defs>
<path id="path0_fill" d="M 0.926878 5.74888L 0.514932 6.45115L 3.36739e-07 7.33261C 1.25747 9.19371 2.93316 10.7429 4.89646 11.8593C 6.85975 12.9758 9.05761 13.6294 11.3187 13.7692C 11.5835 13.7692 11.8533 13.7934 12.123 13.7983L 12.3682 13.7983L 12.2505 13.5949L 11.8385 12.8926L 8.06237 6.45115L 7.65043 5.74888L 4.2911 -1.47803e-07L 0.926878 5.74888Z"/>
<path id="path1_fill" d="M 15.9139 -2.95606e-07L -2.99324e-07 -2.95606e-07L 3.36423 5.75373L 3.77127 6.45599L 4.26168 7.33261C 6.5283 7.19481 8.73186 6.5407 10.6998 5.4215C 12.6677 4.3023 14.3466 2.74839 15.6049 0.881463C 15.752 0.658675 15.8942 0.435888 16.0316 0.208258L 16.1493 0.00484394L 15.9139 -2.95606e-07Z"/>
<path id="path2_fill" d="M 7.95448 0.203415L 7.54253 0.90568L 3.77127 7.36167L 3.37403 8.06394L -5.23816e-07 13.8128L 8.5724 13.8128C 9.57937 11.8069 10.1033 9.5982 10.1033 7.35925C 10.1033 5.12031 9.57937 2.91165 8.5724 0.90568C 8.4547 0.668363 8.32719 0.421359 8.19478 0.203415L 8.07708 3.69507e-08L 7.95448 0.203415Z"/>
<path id="path3_fill" d="M 0 4.61884e-08L 0.122603 0.203415L 0.529646 0.895993L 4.30091 7.35199L 4.71286 8.05425L 8.0918 13.8128L 11.456 8.06394L 11.868 7.36167L 12.3584 6.48021C 11.1049 4.61523 9.43118 3.06226 7.4683 1.94302C 5.50541 0.823776 3.30673 0.168676 1.04458 0.0290593C 0.779755 0.0290593 0.510029 0.00484325 0.240303 4.61884e-08L 0 4.61884e-08Z"/>
<path id="path4_fill" d="M 3.37976 4.43409e-07L 1.53091 4.43409e-07C 0.523934 2.00597 3.23124e-07 4.21463 3.23124e-07 6.45357C 3.23124e-07 8.69252 0.523934 10.9012 1.53091 12.9071C 1.6486 13.1493 1.77611 13.3915 1.90852 13.6094L 2.02622 13.8128L 2.14882 13.6094L 2.56077 12.9071L 6.33694 6.45599L 6.74889 5.75373L 10.1082 0.00484284L 3.37976 4.43409e-07Z"/>
<path id="path5_fill" d="M 0.544358 6.46084C 0.397234 6.67878 0.255014 6.90641 0.117699 7.13404L 3.74155e-08 7.33746L 16.1493 7.33746L 12.7899 1.58857L 12.378 0.87662L 11.8876 2.7713e-08C 9.61957 0.136685 7.41463 0.791349 5.44629 1.91246C 3.47796 3.03358 1.79996 4.59055 0.544358 6.46084Z"/>
<path id="path6_fill" d="M 2.37277 5.33331C 2.15558 4.8726 2.10708 4.35171 2.23554 3.85961C 2.36401 3.3675 2.66147 2.9347 3.07714 2.63512C 3.4928 2.33553 4.00088 2.18774 4.51462 2.21699C 5.02835 2.24623 5.51587 2.4507 5.89392 2.79547C 6.05248 2.98694 6.26989 3.12218 6.51322 3.18073C 6.75656 3.23928 7.01259 3.21795 7.24256 3.11997L 6.38434 3.49774C 6.54207 3.76166 6.64206 4.05529 6.67788 4.3597C 6.7137 4.66412 6.68454 4.97257 6.59228 5.26517C 6.50002 5.55778 6.34672 5.82805 6.14224 6.05858C 5.93777 6.2891 5.68666 6.47477 5.40509 6.6036C 5.12353 6.73244 4.81776 6.80159 4.50748 6.8066C 4.1972 6.81161 3.88931 6.75237 3.60363 6.63269C 3.31795 6.51302 3.06083 6.33556 2.84883 6.11176C 2.63683 5.88796 2.47466 5.62278 2.37277 5.33331ZM 2.57384 0.417458C 1.77659 0.781916 1.10681 1.37184 0.64931 2.11251C 0.191811 2.85319 -0.0328174 3.71129 0.00387366 4.57813C 0.0405647 5.44498 0.336925 6.28157 0.855419 6.98195C 1.37391 7.68234 2.09121 8.215 2.91647 8.51248C 3.74173 8.80995 4.63783 8.85887 5.49126 8.65302C 6.34468 8.44717 7.11706 7.99582 7.71055 7.35613C 8.30404 6.71644 8.69195 5.9172 8.82515 5.05963C 8.95834 4.20206 8.83084 3.32473 8.45878 2.53878L 7.28179 3.09091C 7.55101 2.95841 7.75711 2.72721 7.85607 2.44668C 7.95503 2.16616 7.93901 1.85853 7.81143 1.58951C 7.72686 1.40981 7.5968 1.25468 7.43382 1.1391C 6.78743 0.556568 5.98028 0.176943 5.11494 0.0484519C 4.24959 -0.0800395 3.3651 0.0484017 2.57384 0.417458Z"/>
</defs>
</svg>
