<svg width="169" height="32" viewBox="0 0 169 32" version="1.1" xmlns="http://www.w3.org/2000/svg" xmlns:xlink="http://www.w3.org/1999/xlink">
<title>BoiREgistra Logo</title>
<desc>Created using Figma</desc>
<g id="Canvas" transform="translate(1394 446)">
<g id="BoiREgistra Logo">
<g id="Layer 2">
<g id="Layer 1">
<g id="&#60;Group&#62;">
<g id="&#60;Compound Path&#62;">
<use xlink:href="#path0_fill" transform="translate(-1337.46 -438.424)" fill="#FFFFFF"/>
</g>
<g id="&#60;Group&#62;">
<g id="&#60;Path&#62;">
<use xlink:href="#path1_fill" transform="translate(-1380.86 -427.798)" fill="#FFFFFF"/>
</g>
<g id="&#60;Path&#62;">
<use xlink:href="#path2_fill" transform="translate(-1371.98 -421.347)" fill="#FFFFFF"/>
</g>
<g id="&#60;Path&#62;">
<use xlink:href="#path3_fill" transform="translate(-1364.02 -435.862)" fill="#FFFFFF"/>
</g>
<g id="&#60;Path&#62;">
<use xlink:href="#path4_fill" transform="translate(-1368.73 -443.016)" fill="#FFFFFF"/>
</g>
<g id="&#60;Path&#62;">
<use xlink:href="#path5_fill" transform="translate(-1383.31 -434.957)" fill="#FFFFFF"/>
</g>
<g id="&#60;Path&#62;">
<use xlink:href="#path6_fill" transform="translate(-1381.4 -442.996)" fill="#FFFFFF"/>
</g>
<g id="&#60;Compound Path&#62;">
<use xlink:href="#path7_fill" transform="translate(-1394 -446)" fill="#FFFFFF"/>
</g>
</g>
</g>
</g>
</g>
</g>
</g>
<defs>
<path id="path0_fill" d="M 14.4622 15.0769L 16.1395 15.0769L 16.1395 4.0247L 14.4622 4.0247L 14.4622 15.0769ZM 71.9728 15.0769L 73.65 15.0769L 73.65 4.0247L 71.9532 4.0247L 71.9728 15.0769ZM 21.0436 12.5148C 20.3546 11.6804 19.9972 10.6267 20.0382 9.5508C 19.9968 8.47486 20.3542 7.42094 21.0436 6.58676C 21.4106 6.19888 21.8544 5.88963 22.3475 5.6782C 22.8406 5.46677 23.3725 5.35767 23.91 5.35767C 24.4476 5.35767 24.9794 5.46677 25.4725 5.6782C 25.9656 5.88963 26.4095 6.19888 26.7765 6.58676C 27.4684 7.41981 27.8277 8.47411 27.7867 9.5508C 27.8273 10.6274 27.468 11.6816 26.7765 12.5148C 26.4095 12.9027 25.9656 13.212 25.4725 13.4234C 24.9794 13.6348 24.4476 13.7439 23.91 13.7439C 23.3725 13.7439 22.8406 13.6348 22.3475 13.4234C 21.8544 13.212 21.4106 12.9027 21.0436 12.5148ZM 19.8372 5.50672C 18.8368 6.61678 18.3096 8.0658 18.3659 9.5508C 18.3091 11.0359 18.8363 12.4851 19.8372 13.5949C 20.9202 14.6564 22.3842 15.252 23.91 15.252C 25.4359 15.252 26.8999 14.6564 27.9829 13.5949C 28.9842 12.4853 29.5115 11.036 29.4541 9.5508C 29.511 8.06572 28.9838 6.61652 27.9829 5.50672C 26.8999 4.44525 25.4359 3.8496 23.91 3.8496C 22.3842 3.8496 20.9202 4.44525 19.8372 5.50672ZM 48.4478 6.30101C 49.1702 5.68733 50.0916 5.34985 51.0445 5.34985C 51.9975 5.34985 52.9188 5.68733 53.6413 6.30101C 54.309 6.92728 54.7369 7.76227 54.8526 8.6645L 47.2365 8.6645C 47.3484 7.7622 47.775 6.92654 48.4429 6.30101L 48.4478 6.30101ZM 46.9716 5.50672C 45.9708 6.61652 45.4436 8.06572 45.5004 9.5508C 45.4541 11.0474 46.0095 12.5014 47.0452 13.5949C 47.5732 14.1443 48.2137 14.5762 48.924 14.8619C 49.6344 15.1475 50.3983 15.2802 51.1647 15.2513C 52.3232 15.3016 53.4666 14.9767 54.421 14.3262C 55.2618 13.7129 55.9042 12.8716 56.2699 11.9046L 54.4357 11.9046C 54.1361 12.4931 53.6673 12.9812 53.088 13.3077C 52.5088 13.6342 51.8448 13.7846 51.1794 13.7402C 50.6786 13.7576 50.1792 13.6767 49.7103 13.5021C 49.2414 13.3275 48.8123 13.0627 48.4478 12.7231C 47.7451 12.0564 47.3083 11.1627 47.2169 10.2046L 56.5984 10.2046L 56.5984 9.5508C 56.6548 8.0658 56.1276 6.61678 55.1272 5.50672C 54.0442 4.44525 52.5802 3.8496 51.0543 3.8496C 49.5285 3.8496 48.0645 4.44525 46.9815 5.50672L 46.9716 5.50672ZM 60.713 12.3841C 60.0049 11.5803 59.6286 10.5431 59.6586 9.47815C 59.6281 8.41313 60.0045 7.37576 60.713 6.57223C 61.0775 6.172 61.5263 5.85537 62.0278 5.64453C 62.5293 5.43369 63.0715 5.33376 63.6162 5.35174C 64.153 5.33314 64.6875 5.43056 65.1821 5.63719C 65.6768 5.84382 66.1199 6.15467 66.4802 6.54801C 67.1656 7.3617 67.5235 8.39619 67.4856 9.45394C 67.5235 10.5117 67.1656 11.5462 66.4802 12.3599C 66.1317 12.7398 65.7077 13.0448 65.2346 13.2559C 64.7197 13.4766 64.1628 13.5856 63.6015 13.5755C 63.055 13.6004 62.5096 13.5066 62.0037 13.3007C 61.4979 13.0949 61.0439 12.782 60.6738 12.3841L 60.713 12.3841ZM 59.4379 5.50672C 58.445 6.59615 57.9178 8.02291 57.9667 9.48784C 57.9172 10.9529 58.4446 12.3798 59.4379 13.469C 59.9342 14.0044 60.5416 14.4278 61.2186 14.7104C 61.8957 14.9929 62.6265 15.1278 63.3612 15.106C 64.1441 15.1472 64.9244 14.9878 65.6264 14.6433C 66.3285 14.2987 66.9284 13.7807 67.3679 13.1396L 67.3679 14.6652C 67.4032 15.1357 67.3443 15.6084 67.1945 16.0563C 67.0448 16.5042 66.807 16.9186 66.4949 17.2757C 65.913 17.8634 64.973 18.1588 63.6751 18.162C 61.975 18.162 60.8863 17.5873 60.4089 16.4378L 58.565 16.4378C 58.8667 17.3987 59.4957 18.2269 60.3452 18.7819C 61.4394 19.4298 62.7053 19.7386 63.9791 19.6683C 65.3318 19.7385 66.6597 19.2909 67.6866 18.4187C 68.6021 17.5857 69.0598 16.3733 69.0598 14.7815L 69.0598 4.0247L 67.3826 4.0247L 67.3826 5.79247C 66.9598 5.1657 66.3798 4.65781 65.6991 4.31829C 65.0184 3.97877 64.2602 3.81922 63.4985 3.85519C 62.7412 3.82543 61.9863 3.95759 61.2854 4.24263C 60.5846 4.52768 59.9544 4.95887 59.4379 5.50672ZM 77.181 4.69791C 76.8176 4.96828 76.5266 5.32234 76.3334 5.72922C 76.1402 6.1361 76.0507 6.58347 76.0727 7.03233C 76.0372 7.61404 76.2345 8.18624 76.6219 8.62575C 77.0086 9.02372 77.479 9.33291 78 9.53143C 78.5825 9.75284 79.1852 9.91827 79.7998 10.0254C 80.4537 10.1514 81.0553 10.2918 81.6045 10.4468C 82.0929 10.5722 82.558 10.7732 82.9826 11.0425C 83.1592 11.155 83.3029 11.3112 83.3993 11.4956C 83.4956 11.68 83.5414 11.8862 83.5318 12.0935C 83.5441 12.4196 83.4447 12.7403 83.2499 13.0039C 83.0551 13.2674 82.7761 13.4586 82.4579 13.5464C 82.1417 13.6651 81.8125 13.7464 81.477 13.7886C 81.1243 13.8351 80.7687 13.8578 80.4128 13.8564C 80.0204 13.8558 79.6303 13.797 79.2555 13.6821C 78.7832 13.562 78.3609 13.299 78.0478 12.9298C 77.7346 12.5606 77.5464 12.1039 77.5096 11.6237L 75.7784 11.6237C 75.7953 12.1152 75.9203 12.5973 76.1448 13.0364C 76.3692 13.4754 76.6876 13.861 77.078 14.1664C 78.0914 14.9461 79.3557 15.3382 80.6384 15.2706C 81.8122 15.3311 82.9765 15.0335 83.9732 14.4182C 84.3748 14.1428 84.698 13.7701 84.9118 13.3359C 85.1256 12.9017 85.2229 12.4205 85.1944 11.9385C 85.2281 11.3438 85.0317 10.7587 84.6451 10.3015C 84.264 9.90027 83.7987 9.5862 83.2817 9.38129C 82.7002 9.14336 82.0954 8.96484 81.477 8.84854C 80.8232 8.72584 80.2216 8.58862 79.6723 8.43686C 79.1869 8.3194 78.7222 8.12998 78.2943 7.87505C 78.119 7.77189 77.9754 7.62372 77.8787 7.44632C 77.7819 7.26892 77.7357 7.06894 77.745 6.86767C 77.745 5.80539 78.6065 5.27425 80.3295 5.27425C 82.0524 5.27425 82.9891 5.84898 83.1395 6.99843L 84.8413 6.99843C 84.7755 6.15439 84.3733 5.37059 83.7231 4.81899C 82.7908 4.12737 81.6407 3.7842 80.4766 3.85035C 79.0282 3.85035 77.9346 4.12641 77.1957 4.67854L 77.181 4.69791ZM 100.466 3.85035C 99.5541 3.83313 98.661 4.10649 97.919 4.62992C 97.177 5.15335 96.6255 5.89898 96.3463 6.75627L 96.3463 4.0247L 94.6642 4.0247L 94.6642 15.0769L 96.3463 15.0769L 96.3463 10.2337C 96.3124 9.05518 96.686 7.90042 97.4056 6.95969C 97.7433 6.50341 98.1865 6.13348 98.6984 5.88073C 99.2102 5.62799 99.7759 5.49975 100.348 5.50672L 100.549 5.50672L 100.549 3.85035L 100.466 3.85035ZM 104.139 12.5148C 103.424 11.6923 103.05 10.634 103.089 9.5508C 103.049 8.46754 103.424 7.40908 104.139 6.58676C 104.501 6.18132 104.95 5.85995 105.453 5.64561C 105.955 5.43128 106.5 5.32928 107.047 5.3469C 107.589 5.32359 108.128 5.42323 108.625 5.63817C 109.121 5.85311 109.561 6.17762 109.911 6.58676C 110.6 7.42094 110.958 8.47486 110.916 9.5508C 110.957 10.6267 110.6 11.6804 109.911 12.5148C 109.559 12.9236 109.116 13.2468 108.617 13.4593C 108.117 13.6718 107.575 13.7679 107.032 13.7402C 106.485 13.7581 105.94 13.6563 105.438 13.4419C 104.935 13.2276 104.486 12.906 104.124 12.5003L 104.139 12.5148ZM 102.849 5.50672C 101.858 6.62215 101.332 8.06743 101.378 9.5508C 101.332 11.0343 101.858 12.4797 102.849 13.5949C 103.342 14.1359 103.948 14.5644 104.626 14.8504C 105.303 15.1365 106.036 15.2733 106.772 15.2513C 107.553 15.2975 108.332 15.1434 109.034 14.8039C 109.736 14.4644 110.338 13.9511 110.779 13.314L 110.779 15.0817L 112.456 15.0817L 112.456 4.0247L 110.779 4.0247L 110.779 5.81669C 110.359 5.1831 109.779 4.66854 109.096 4.32374C 108.413 3.97894 107.651 3.81578 106.885 3.85035C 106.131 3.82117 105.38 3.95418 104.683 4.24018C 103.986 4.52618 103.36 4.95833 102.849 5.50672ZM 1.67721 8.49014L 7.0325 8.49014C 7.9611 8.42769 8.87968 8.71108 9.60717 9.28442C 9.86837 9.50894 10.076 9.78782 10.215 10.101C 10.3541 10.4142 10.4212 10.7539 10.4114 11.0958C 10.4292 11.4369 10.363 11.7771 10.2187 12.0875C 10.0744 12.3978 9.85616 12.6691 9.58265 12.8781C 8.88343 13.3408 8.04891 13.5621 7.20905 13.5077L 1.67721 13.5077L 1.67721 8.49014ZM 1.67721 2.00993L 6.82653 2.00993C 7.2234 1.98185 7.62181 2.03631 7.99603 2.16979C 8.37025 2.30327 8.71196 2.5128 8.99906 2.78484C 9.21842 3.00049 9.386 3.26199 9.48947 3.55007C 9.60623 3.86687 9.66758 4.20097 9.67092 4.53808C 9.67486 4.90267 9.5908 5.26293 9.42572 5.58906C 8.96146 6.51573 8.04439 6.97906 6.67451 6.97906L 1.67721 6.97906L 1.67721 2.00993ZM -5.98647e-07 0.440732L -5.98647e-07 15.0769L 7.0325 15.0769C 7.78344 15.0916 8.53189 14.987 9.24917 14.7669C 11.1454 14.1761 12.0936 12.9959 12.0936 11.2266C 12.1047 10.7313 12.0216 10.2385 11.8484 9.77359C 11.6226 9.24624 11.2798 8.77572 10.8452 8.39681C 10.4106 8.0179 9.8953 7.74028 9.33745 7.58446C 10.6648 6.99682 11.3285 5.89902 11.3285 4.29108C 11.3447 3.8134 11.2616 3.33751 11.0845 2.89272C 10.9074 2.44794 10.6399 2.04367 10.2986 1.70481C 9.46495 0.852404 8.24873 0.424588 6.64998 0.421359L -5.98647e-07 0.440732ZM 33.5147 2.00993L 38.7327 2.00993C 39.6555 1.96515 40.5633 2.25254 41.2878 2.81875C 41.6099 3.08741 41.8657 3.42511 42.0356 3.80615C 42.2056 4.18719 42.2853 4.60151 42.2686 5.01756C 42.2889 5.51007 42.1737 5.9988 41.9351 6.43178C 41.3368 7.40042 40.2465 7.88474 38.6641 7.88474L 33.5147 7.88474L 33.5147 2.00993ZM 31.8326 0.440732L 31.8326 15.0769L 33.5147 15.0769L 33.5147 9.46362L 38.6641 9.46362L 42.2441 15.0769L 44.2351 15.0769L 40.3413 9.17303C 40.78 9.07687 41.2074 8.93565 41.6164 8.75167C 43.153 8.08977 43.9213 6.84506 43.9213 5.01756C 43.954 4.39568 43.8484 3.77427 43.612 3.19696C 43.3757 2.61965 43.0142 2.10043 42.553 1.67575C 41.5507 0.819178 40.2528 0.376878 38.9289 0.440732L 31.8326 0.440732ZM 88.5635 0.0629618L 88.5635 4.01986L 86.2782 4.01986L 86.2782 5.47282L 88.5635 5.47282L 88.5635 15.0769L 90.2407 15.0769L 90.2407 5.50672L 92.8154 5.50672L 92.8154 4.05376L 90.2407 4.05376L 90.2407 0.0678051L 88.5635 0.0629618ZM 14.3936 2.16976L 16.2081 2.16976L 16.2081 5.54261e-08L 14.3936 5.54261e-08L 14.3936 2.16976ZM 71.9042 2.16976L 73.7187 2.16976L 73.7187 5.54261e-08L 71.9042 5.54261e-08L 71.9042 2.16976Z"/>
<path id="path1_fill" d="M 0.926878 5.74888L 0.514932 6.45115L 3.36739e-07 7.33261C 1.25747 9.19371 2.93316 10.7429 4.89646 11.8593C 6.85975 12.9758 9.05761 13.6294 11.3187 13.7692C 11.5835 13.7692 11.8533 13.7934 12.123 13.7983L 12.3682 13.7983L 12.2505 13.5949L 11.8385 12.8926L 8.06237 6.45115L 7.65043 5.74888L 4.2911 -1.47803e-07L 0.926878 5.74888Z"/>
<path id="path2_fill" d="M 15.9139 -2.95606e-07L -2.99324e-07 -2.95606e-07L 3.36423 5.75373L 3.77127 6.45599L 4.26168 7.33261C 6.5283 7.19481 8.73186 6.5407 10.6998 5.4215C 12.6677 4.3023 14.3466 2.74839 15.6049 0.881463C 15.752 0.658675 15.8942 0.435888 16.0316 0.208258L 16.1493 0.00484394L 15.9139 -2.95606e-07Z"/>
<path id="path3_fill" d="M 7.95448 0.203415L 7.54253 0.90568L 3.77127 7.36167L 3.37403 8.06394L -5.23816e-07 13.8128L 8.5724 13.8128C 9.57937 11.8069 10.1033 9.5982 10.1033 7.35925C 10.1033 5.12031 9.57937 2.91165 8.5724 0.90568C 8.4547 0.668363 8.32719 0.421359 8.19478 0.203415L 8.07708 3.69507e-08L 7.95448 0.203415Z"/>
<path id="path4_fill" d="M 0 4.61884e-08L 0.122603 0.203415L 0.529646 0.895993L 4.30091 7.35199L 4.71286 8.05425L 8.0918 13.8128L 11.456 8.06394L 11.868 7.36167L 12.3584 6.48021C 11.1049 4.61523 9.43118 3.06226 7.4683 1.94302C 5.50541 0.823776 3.30673 0.168676 1.04458 0.0290593C 0.779755 0.0290593 0.510029 0.00484325 0.240303 4.61884e-08L 0 4.61884e-08Z"/>
<path id="path5_fill" d="M 3.37976 4.43409e-07L 1.53091 4.43409e-07C 0.523934 2.00597 3.23124e-07 4.21463 3.23124e-07 6.45357C 3.23124e-07 8.69252 0.523934 10.9012 1.53091 12.9071C 1.6486 13.1493 1.77611 13.3915 1.90852 13.6094L 2.02622 13.8128L 2.14882 13.6094L 2.56077 12.9071L 6.33694 6.45599L 6.74889 5.75373L 10.1082 0.00484284L 3.37976 4.43409e-07Z"/>
<path id="path6_fill" d="M 0.544358 6.46084C 0.397234 6.67878 0.255014 6.90641 0.117699 7.13404L 3.74155e-08 7.33746L 16.1493 7.33746L 12.7899 1.58857L 12.378 0.87662L 11.8876 2.7713e-08C 9.61957 0.136685 7.41463 0.791349 5.44629 1.91246C 3.47796 3.03358 1.79996 4.59055 0.544358 6.46084Z"/>
<path id="path7_fill" d="M 2.37277 5.33331C 2.15558 4.8726 2.10708 4.35171 2.23554 3.85961C 2.36401 3.3675 2.66147 2.9347 3.07714 2.63512C 3.4928 2.33553 4.00088 2.18774 4.51462 2.21699C 5.02835 2.24623 5.51587 2.4507 5.89392 2.79547C 6.05248 2.98694 6.26989 3.12218 6.51322 3.18073C 6.75656 3.23928 7.01259 3.21795 7.24256 3.11997L 6.38434 3.49774C 6.54207 3.76166 6.64206 4.05529 6.67788 4.3597C 6.7137 4.66412 6.68454 4.97257 6.59228 5.26517C 6.50002 5.55778 6.34672 5.82805 6.14224 6.05858C 5.93777 6.2891 5.68666 6.47477 5.40509 6.6036C 5.12353 6.73244 4.81776 6.80159 4.50748 6.8066C 4.1972 6.81161 3.88931 6.75237 3.60363 6.63269C 3.31795 6.51302 3.06083 6.33556 2.84883 6.11176C 2.63683 5.88796 2.47466 5.62278 2.37277 5.33331ZM 2.57384 0.417458C 1.77659 0.781916 1.10681 1.37184 0.64931 2.11251C 0.191811 2.85319 -0.0328174 3.71129 0.00387366 4.57813C 0.0405647 5.44498 0.336925 6.28157 0.855419 6.98195C 1.37391 7.68234 2.09121 8.215 2.91647 8.51248C 3.74173 8.80995 4.63783 8.85887 5.49126 8.65302C 6.34468 8.44717 7.11706 7.99582 7.71055 7.35613C 8.30404 6.71644 8.69195 5.9172 8.82515 5.05963C 8.95834 4.20206 8.83084 3.32473 8.45878 2.53878L 7.28179 3.09091C 7.55101 2.95841 7.75711 2.72721 7.85607 2.44668C 7.95503 2.16616 7.93901 1.85853 7.81143 1.58951C 7.72686 1.40981 7.5968 1.25468 7.43382 1.1391C 6.78743 0.556568 5.98028 0.176943 5.11494 0.0484519C 4.24959 -0.0800395 3.3651 0.0484017 2.57384 0.417458Z"/>
</defs>
</svg>
