<svg xmlns="http://www.w3.org/2000/svg" xmlns:xlink="http://www.w3.org/1999/xlink" viewBox="0 0 20.093 20.117"><defs><style>.a{fill:url(#a);}</style><linearGradient id="a" x1="0.5" x2="0.5" y2="1" gradientUnits="objectBoundingBox"><stop offset="0" stop-color="#ff3cac"/><stop offset="0.52" stop-color="#784ba0"/><stop offset="1" stop-color="#2b86c5"/></linearGradient></defs><path class="a" d="M34.712,28.831a.71.71,0,0,0-1,1l3.273,3.273a.694.694,0,0,0,.5.208h.035a.792.792,0,0,0,.519-.26l8.191-9.818a.713.713,0,0,0-1.091-.918l-7.706,9.23Z" transform="translate(-28.816 -19.363)"/><path class="a" d="M21.8,7.963a10.065,10.065,0,1,0,3.186,3.186.7.7,0,1,0-1.195.745,8.62,8.62,0,1,1-2.736-2.736A.7.7,0,0,0,21.8,7.963Z" transform="translate(-6.45 -6.426)"/></svg>